# xmcd CD database file
#
# Track frame offsets:
#	150
#	21624
#	36083
#	56167
#	63542
#	90715
#	118921
#	141285
#	163433
#	187391
#	194490
#	207462
#	216766
#	239188
#	266664
#	290312
#	304317
#	327333
#
# Disc length: 4498 seconds
#
# Revision: 0
# Processed by: cddbd v1.5.2PL0 Copyright (c) Steve Scherf et al.
# Submitted via: CDex 1.51
#
DISCID=3a119012
DTITLE=Chick Corea - MySpanish Heart
DYEAR=2000
DGENRE=Jazz
TTITLE0=Love Castle
TTITLE1=The Garden
TTITLE2=Day Danse
TTITLE3=My Spanish Heart
TTITLE4=Night Streets
TTITLE5=The Hilltop
TTITLE6=The Sky
TTITLE7=Wind Danse
TTITLE8=Armando's Rhumba
TTITLE9=Prelude to El Bozo
TTITLE10=El Bozo Part I
TTITLE11=El Bozo Part II
TTITLE12=El Bozo Part III
TTITLE13=Spanish Fantasy Part I
TTITLE14=Spanish Fantasy Part II
TTITLE15=Spanish Fantasy Part III
TTITLE16=Spanish Fantasy Part IV
TTITLE17=The Clouds
EXTD=YEAR: 2000
EXTT0=
EXTT1=
EXTT2=
EXTT3=
EXTT4=
EXTT5=
EXTT6=
EXTT7=
EXTT8=
EXTT9=
EXTT10=
EXTT11=
EXTT12=
EXTT13=
EXTT14=
EXTT15=
EXTT16=
EXTT17=
PLAYORDER=
